<?xml version="1.0" standalone="no"?>
<!DOCTYPE svg PUBLIC "-//W3C//DTD SVG 20010904//EN"
 "http://www.w3.org/TR/2001/REC-SVG-20010904/DTD/svg10.dtd">
<svg version="1.0" xmlns="http://www.w3.org/2000/svg"
 width="96.000000pt" height="96.000000pt" viewBox="0 0 96.000000 96.000000"
 preserveAspectRatio="xMidYMid meet">
<metadata>
Created by potrace 1.11, written by Peter Selinger 2001-2013
</metadata>
<g transform="translate(0.000000,96.000000) scale(0.100000,-0.100000)"
fill="#000000" stroke="none">
<path d="M320 761 c0 -77 -1 -79 -29 -90 -42 -18 -51 -49 -51 -177 l0 -114 70
-70 70 -70 0 -60 0 -60 100 0 100 0 0 60 0 60 70 70 70 70 0 114 c0 128 -9
159 -51 177 -28 11 -29 13 -29 90 l0 79 -40 0 -40 0 0 -80 0 -80 -80 0 -80 0
0 80 0 80 -40 0 -40 0 0 -79z"/>
</g>
</svg>
